# xmcd CD database file
#
# Track frame offsets:
#	150
#	20815
#	38437
#	58100
#	78672
#	101690
#	118787
#	144217
#	172740
#	193175
#	205737
#	234600
#	260650
#	281105
#	298930
#
# Disc length: 4242 seconds
#
# Revision: 0
# Processed by: cddbd v1.5.1PL2 Copyright (c) Steve Scherf et al.
# Submitted via: CDex 1.51
#
DISCID=e110900f
DTITLE=Monica Zetterlund - For Lester and Billie
DYEAR=1984
DGENRE=Jazz
TTITLE0=Lester Leaps In
TTITLE1=East of the Sun
TTITLE2=There Will Never Be Another You
TTITLE3=I Should Care
TTITLE4=I Wished on the Moon
TTITLE5=Jumpin' With Symphony Sid
TTITLE6=What's New_
TTITLE7=Billie's Blues
TTITLE8=For All We Know
TTITLE9=But Beautiful
TTITLE10=Blue Lester
TTITLE11=He's Funny That Way
TTITLE12=I've Found a New Baby
TTITLE13=My Man
TTITLE14=Oh, Lady Be Good
EXTD=YEAR: 1984
EXTT0=
EXTT1=
EXTT2=
EXTT3=
EXTT4=
EXTT5=
EXTT6=
EXTT7=
EXTT8=
EXTT9=
EXTT10=
EXTT11=
EXTT12=
EXTT13=
EXTT14=
PLAYORDER=
